<svg width="20" height="20" viewBox="0 0 20 20" fill="none" xmlns="http://www.w3.org/2000/svg">
<g clip-path="url(#clip0_1586_34791)">
<mask id="mask0_1586_34791" style="mask-type:alpha" maskUnits="userSpaceOnUse" x="0" y="0" width="20" height="20">
<rect width="20" height="20" fill="#D9D9D9"/>
</mask>
<g mask="url(#mask0_1586_34791)">
<path d="M14.3743 13.1224V5.8724C14.3743 5.81684 14.3466 5.76128 14.291 5.70573C14.2355 5.65017 14.1799 5.6224 14.1243 5.6224H6.87435V4.3724H14.1243C14.541 4.3724 14.8952 4.51823 15.1868 4.8099C15.4785 5.10156 15.6243 5.45573 15.6243 5.8724V13.1224H14.3743ZM14.9993 18.9557C14.8188 18.9557 14.6693 18.8968 14.551 18.7791C14.4332 18.6607 14.3743 18.5113 14.3743 18.3307V15.6224H5.87435C5.45768 15.6224 5.10352 15.4766 4.81185 15.1849C4.52018 14.8932 4.37435 14.5391 4.37435 14.1224V5.6224H1.66602C1.48546 5.6224 1.33602 5.56323 1.21768 5.4449C1.0999 5.32712 1.04102 5.17795 1.04102 4.9974C1.04102 4.81684 1.0999 4.66767 1.21768 4.5499C1.33602 4.43156 1.48546 4.3724 1.66602 4.3724H4.37435V1.66406C4.37435 1.48351 4.43352 1.33406 4.55185 1.21573C4.66963 1.09795 4.81879 1.03906 4.99935 1.03906C5.1799 1.03906 5.32907 1.09795 5.44685 1.21573C5.56518 1.33406 5.62435 1.48351 5.62435 1.66406V14.1224C5.62435 14.178 5.65213 14.2335 5.70768 14.2891C5.76324 14.3446 5.81879 14.3724 5.87435 14.3724H18.3327C18.5132 14.3724 18.6627 14.4313 18.781 14.5491C18.8988 14.6674 18.9577 14.8168 18.9577 14.9974C18.9577 15.178 18.8988 15.3274 18.781 15.4457C18.6627 15.5635 18.5132 15.6224 18.3327 15.6224H15.6243V18.3307C15.6243 18.5113 15.5655 18.6607 15.4477 18.7791C15.3293 18.8968 15.1799 18.9557 14.9993 18.9557Z" fill="#CCCCCC"/>
</g>
</g>
<defs>
<clipPath id="clip0_1586_34791">
<rect width="20" height="20" fill="white"/>
</clipPath>
</defs>
</svg>
