<svg width="20" height="20" viewBox="0 0 20 20" fill="none" xmlns="http://www.w3.org/2000/svg">
<mask id="mask0_1586_34804" style="mask-type:alpha" maskUnits="userSpaceOnUse" x="0" y="0" width="20" height="20">
<rect width="20" height="20" fill="#D9D9D9"/>
</mask>
<g mask="url(#mask0_1586_34804)">
<path d="M17.4173 15.5C17.4173 15.9167 17.2715 16.2708 16.9798 16.5625C16.6882 16.8542 16.334 17 15.9173 17H4.75065C4.33398 17 3.97982 16.8542 3.68815 16.5625C3.39648 16.2708 3.25065 15.9167 3.25065 15.5V12.8333C3.25065 12.6528 3.30954 12.5033 3.42732 12.385C3.54565 12.2672 3.6951 12.2083 3.87565 12.2083C4.05621 12.2083 4.20537 12.2672 4.32315 12.385C4.44148 12.5033 4.50065 12.6528 4.50065 12.8333V15.5C4.50065 15.5694 4.5251 15.6283 4.57398 15.6767C4.62232 15.7256 4.68121 15.75 4.75065 15.75H15.9173C15.9868 15.75 16.0459 15.7256 16.0948 15.6767C16.1432 15.6283 16.1673 15.5694 16.1673 15.5V12.8333C16.1673 12.6528 16.2262 12.5033 16.344 12.385C16.4623 12.2672 16.6118 12.2083 16.7923 12.2083C16.9729 12.2083 17.1223 12.2672 17.2407 12.385C17.3584 12.5033 17.4173 12.6528 17.4173 12.8333V15.5ZM19.5007 9.91667C19.5007 10.0972 19.4418 10.2464 19.324 10.3642C19.2057 10.4825 19.0562 10.5417 18.8757 10.5417H1.95898C1.77843 10.5417 1.62898 10.4825 1.51065 10.3642C1.39287 10.2464 1.33398 10.0972 1.33398 9.91667C1.33398 9.73611 1.39287 9.58667 1.51065 9.46833C1.62898 9.35055 1.77843 9.29167 1.95898 9.29167H18.8757C19.0562 9.29167 19.2057 9.35055 19.324 9.46833C19.4418 9.58667 19.5007 9.73611 19.5007 9.91667ZM4.50065 4.08333V4.25H3.25065V4.08333C3.25065 3.73611 3.37232 3.44111 3.61565 3.19833C3.85843 2.955 4.15343 2.83333 4.50065 2.83333H4.66732V4.08333H4.50065ZM11.1048 4.08333H9.56315V2.83333H11.1048V4.08333ZM17.4173 4.08333V4.25H16.1673V4.08333H16.0006V2.83333H16.1673C16.5145 2.83333 16.8095 2.955 17.0523 3.19833C17.2957 3.44111 17.4173 3.73611 17.4173 4.08333ZM7.89648 4.08333H6.33398V2.83333H7.89648V4.08333ZM14.334 4.08333H12.7715V2.83333H14.334V4.08333ZM17.4173 7.625H16.1673V5.91667H17.4173V7.625ZM4.50065 7.625H3.25065V5.91667H4.50065L4.50065 7.625Z" fill="#CCCCCC"/>
</g>
</svg>
