<svg width="20" height="20" viewBox="0 0 20 20" fill="none" xmlns="http://www.w3.org/2000/svg">
<mask id="mask0_1586_34795" style="mask-type:alpha" maskUnits="userSpaceOnUse" x="0" y="0" width="20" height="20">
<rect width="20" height="20" fill="#D9D9D9"/>
</mask>
<g mask="url(#mask0_1586_34795)">
<path d="M10.0487 10.7051H15.0808C15.2955 10.7051 15.4747 10.6333 15.6184 10.4896C15.7621 10.3459 15.834 10.1666 15.834 9.9519V6.58652C15.834 6.37177 15.7621 6.19255 15.6184 6.04885C15.4747 5.90516 15.2955 5.83331 15.0808 5.83331H10.0487C9.83396 5.83331 9.65474 5.90516 9.51105 6.04885C9.36735 6.19255 9.29551 6.37177 9.29551 6.58652V9.9519C9.29551 10.1666 9.36735 10.3459 9.51105 10.4896C9.65474 10.6333 9.83396 10.7051 10.0487 10.7051ZM3.5904 16.25C3.16946 16.25 2.81315 16.1041 2.52148 15.8125C2.22982 15.5208 2.08398 15.1645 2.08398 14.7435V5.25642C2.08398 4.83547 2.22982 4.47917 2.52148 4.1875C2.81315 3.89583 3.16946 3.75 3.5904 3.75H16.4109C16.8318 3.75 17.1881 3.89583 17.4798 4.1875C17.7714 4.47917 17.9173 4.83547 17.9173 5.25642V14.7435C17.9173 15.1645 17.7714 15.5208 17.4798 15.8125C17.1881 16.1041 16.8318 16.25 16.4109 16.25H3.5904ZM3.5904 15H16.4109C16.4857 15 16.5471 14.9759 16.5952 14.9279C16.6433 14.8798 16.6673 14.8183 16.6673 14.7435V5.25642C16.6673 5.18162 16.6433 5.12019 16.5952 5.0721C16.5471 5.02402 16.4857 4.99998 16.4109 4.99998H3.5904C3.51561 4.99998 3.45417 5.02402 3.40609 5.0721C3.35801 5.12019 3.33396 5.18162 3.33396 5.25642V14.7435C3.33396 14.8183 3.35801 14.8798 3.40609 14.9279C3.45417 14.9759 3.51561 15 3.5904 15ZM10.5455 9.45512V7.08329H14.584V9.45512H10.5455Z" fill="#CCCCCC"/>
</g>
</svg>
