<svg width="20" height="20" viewBox="0 0 20 20" fill="none" xmlns="http://www.w3.org/2000/svg">
<mask id="mask0_1586_34801" style="mask-type:alpha" maskUnits="userSpaceOnUse" x="0" y="0" width="20" height="20">
<rect width="20" height="20" fill="#D9D9D9"/>
</mask>
<g mask="url(#mask0_1586_34801)">
<path d="M4.83398 16.9193C4.41732 16.9193 4.06315 16.7734 3.77148 16.4818C3.47982 16.1901 3.33398 15.8359 3.33398 15.4193V4.2526C3.33398 3.83594 3.47982 3.48177 3.77148 3.1901C4.06315 2.89844 4.41732 2.7526 4.83398 2.7526H7.50065C7.68121 2.7526 7.83065 2.81149 7.94898 2.92927C8.06676 3.0476 8.12565 3.19705 8.12565 3.3776C8.12565 3.55816 8.06676 3.70733 7.94898 3.8251C7.83065 3.94344 7.68121 4.0026 7.50065 4.0026H4.83398C4.76454 4.0026 4.70565 4.02705 4.65732 4.07594C4.60843 4.12427 4.58398 4.18316 4.58398 4.2526V15.4193C4.58398 15.4887 4.60843 15.5479 4.65732 15.5968C4.70565 15.6451 4.76454 15.6693 4.83398 15.6693H7.50065C7.68121 15.6693 7.83065 15.7282 7.94898 15.8459C8.06676 15.9643 8.12565 16.1137 8.12565 16.2943C8.12565 16.4748 8.06676 16.6243 7.94898 16.7426C7.83065 16.8604 7.68121 16.9193 7.50065 16.9193H4.83398ZM10.4173 19.0026C10.2368 19.0026 10.0876 18.9437 9.96982 18.8259C9.85148 18.7076 9.79232 18.5582 9.79232 18.3776V1.46094C9.79232 1.28038 9.85148 1.13094 9.96982 1.0126C10.0876 0.894826 10.2368 0.835938 10.4173 0.835938C10.5979 0.835938 10.7473 0.894826 10.8657 1.0126C10.9834 1.13094 11.0423 1.28038 11.0423 1.46094V18.3776C11.0423 18.5582 10.9834 18.7076 10.8657 18.8259C10.7473 18.9437 10.5979 19.0026 10.4173 19.0026ZM16.2507 4.0026H16.084V2.7526H16.2507C16.5979 2.7526 16.8929 2.87427 17.1357 3.1176C17.379 3.36038 17.5007 3.65538 17.5007 4.0026V4.16927H16.2507V4.0026ZM16.2507 10.6068V9.0651H17.5007V10.6068H16.2507ZM16.2507 16.9193H16.084V15.6693H16.2507V15.5026H17.5007V15.6693C17.5007 16.0165 17.379 16.3115 17.1357 16.5543C16.8929 16.7976 16.5979 16.9193 16.2507 16.9193ZM16.2507 7.39844V5.83594H17.5007V7.39844H16.2507ZM16.2507 13.8359V12.2734H17.5007V13.8359H16.2507ZM12.709 16.9193V15.6693H14.4173V16.9193H12.709ZM12.709 4.0026V2.7526H14.4173V4.0026H12.709Z" fill="#CCCCCC"/>
</g>
</svg>
