<svg width="20" height="20" viewBox="0 0 20 20" fill="none" xmlns="http://www.w3.org/2000/svg">
<mask id="mask0_1586_34798" style="mask-type:alpha" maskUnits="userSpaceOnUse" x="0" y="0" width="20" height="20">
<rect width="20" height="20" fill="#D9D9D9"/>
</mask>
<g mask="url(#mask0_1586_34798)">
<path d="M16.3132 10.0417C16.1882 10.0417 16.0668 9.99639 15.949 9.90583C15.8307 9.81583 15.7507 9.70139 15.709 9.5625C15.6395 9.24306 15.5423 8.93389 15.4173 8.635C15.2923 8.33667 15.1465 8.04861 14.9798 7.77083C14.8965 7.65972 14.8654 7.53139 14.8865 7.38583C14.907 7.23972 14.9659 7.11806 15.0632 7.02083C15.2159 6.88194 15.3929 6.82278 15.594 6.84333C15.7957 6.86444 15.9451 6.95833 16.0423 7.125C16.2507 7.45833 16.4312 7.80194 16.584 8.15583C16.7368 8.51028 16.8548 8.88194 16.9382 9.27083C16.9937 9.47917 16.959 9.65972 16.834 9.8125C16.709 9.96528 16.5354 10.0417 16.3132 10.0417ZM10.8757 17.1458C10.8757 17.0069 10.9209 16.8783 11.0115 16.76C11.1015 16.6422 11.2159 16.5694 11.3548 16.5417C11.6743 16.4722 11.9834 16.375 12.2823 16.25C12.5807 16.125 12.8687 15.9792 13.1465 15.8125C13.2576 15.7292 13.3862 15.6978 13.5323 15.7183C13.6779 15.7394 13.7993 15.7986 13.8965 15.8958C14.0354 16.0486 14.0945 16.2222 14.074 16.4167C14.0529 16.6111 13.959 16.7639 13.7923 16.875C13.459 17.0833 13.1118 17.2603 12.7507 17.4058C12.3895 17.5519 12.0215 17.6736 11.6465 17.7708C11.4382 17.8264 11.2576 17.7917 11.1048 17.6667C10.952 17.5417 10.8757 17.3681 10.8757 17.1458ZM15.0632 14.7292C14.9659 14.6458 14.907 14.5278 14.8865 14.375C14.8654 14.2222 14.8965 14.0903 14.9798 13.9792C15.1465 13.7014 15.2923 13.4131 15.4173 13.1142C15.5423 12.8158 15.6395 12.5069 15.709 12.1875C15.7507 12.0486 15.827 11.9339 15.9382 11.8433C16.0493 11.7533 16.1743 11.7083 16.3132 11.7083C16.5354 11.7083 16.709 11.7847 16.834 11.9375C16.959 12.0903 16.9937 12.2708 16.9382 12.4792C16.8548 12.8542 16.7404 13.2189 16.5948 13.5733C16.4487 13.9272 16.2645 14.2778 16.0423 14.625C15.9451 14.7917 15.7957 14.8856 15.594 14.9067C15.3929 14.9272 15.2159 14.8681 15.0632 14.7292ZM8.45898 17.7708C6.86176 17.3819 5.54593 16.5519 4.51148 15.2808C3.47648 14.0103 2.95898 12.5417 2.95898 10.875C2.95898 8.90278 3.64648 7.22917 5.02148 5.85417C6.39648 4.47917 8.0701 3.79167 10.0423 3.79167H10.4173L9.33398 2.70833C9.20898 2.58333 9.14648 2.43389 9.14648 2.26C9.14648 2.08667 9.21593 1.9375 9.35482 1.8125C9.46593 1.6875 9.60843 1.625 9.78232 1.625C9.95565 1.625 10.1048 1.6875 10.2298 1.8125L12.3132 3.89583C12.3826 3.96528 12.4348 4.045 12.4698 4.135C12.5043 4.22556 12.5215 4.31944 12.5215 4.41667C12.5215 4.51389 12.5043 4.6075 12.4698 4.6975C12.4348 4.78806 12.3826 4.86806 12.3132 4.9375L10.2298 7.02083C10.1048 7.14583 9.95565 7.20833 9.78232 7.20833C9.60843 7.20833 9.46593 7.14583 9.35482 7.02083C9.22982 6.89583 9.16732 6.75 9.16732 6.58333C9.16732 6.41667 9.22982 6.27083 9.35482 6.14583L10.459 5.04167H10.0423C8.41732 5.04167 7.03898 5.60778 5.90732 6.74C4.7751 7.87167 4.20898 9.25 4.20898 10.875C4.20898 12.25 4.6326 13.4619 5.47982 14.5108C6.32704 15.5592 7.41037 16.2361 8.72982 16.5417C8.86871 16.5833 8.98343 16.6597 9.07398 16.7708C9.16398 16.8819 9.20898 17.0069 9.20898 17.1458C9.20898 17.3681 9.13621 17.5417 8.99065 17.6667C8.84454 17.7917 8.66732 17.8264 8.45898 17.7708Z" fill="#CCCCCC"/>
</g>
</svg>
